<svg xmlns="http://www.w3.org/2000/svg" version="1.1" xmlns:xlink="http://www.w3.org/1999/xlink" xmlns:svgjs="http://svgjs.com/svgjs" width="540" height="960" preserveAspectRatio="none" viewBox="0 0 540 960"><g mask="url(&quot;#SvgjsMask1088&quot;)" fill="none"><path d="M -273.87284630837513,298 C -219.87,407.6 -111.87,825.6 -3.8728463083751263,846 C 104.13,866.4 158.13,466.6 266.12715369162487,400 C 374.13,333.4 481.35,583.6 536.1271536916249,513 C 590.9,442.4 539.23,140.2 540,47" stroke="rgba(5, 164, 173, 1)" stroke-width="2"></path><path d="M -293.81469516227634,702 C -239.81,568.4 -131.81,34.6 -23.814695162276358,34 C 84.19,33.4 138.19,704.4 246.18530483772363,699 C 354.19,693.6 457.42,-27.6 516.1853048377236,7 C 574.95,41.6 535.24,699 540,872" stroke="rgba(5, 164, 173, 1)" stroke-width="2"></path><path d="M -459.8128961787838,52 C -405.81,146.2 -297.81,457.6 -189.81289617878377,523 C -81.81,588.4 -27.81,378.8 80.18710382121623,379 C 188.19,379.2 258.22,541.6 350.1871038212162,524 C 442.15,506.4 502.04,337.6 540,291" stroke="rgba(5, 164, 173, 1)" stroke-width="2"></path></g><defs><mask id="SvgjsMask1088"><rect width="540" height="960" fill="#ffffff"></rect></mask></defs></svg>