<svg xmlns="http://www.w3.org/2000/svg" version="1.1" xmlns:xlink="http://www.w3.org/1999/xlink" xmlns:svgjs="http://svgjs.com/svgjs" width="1440" height="560" preserveAspectRatio="none" viewBox="0 0 1440 560"><g mask="url(&quot;#SvgjsMask1018&quot;)" fill="none"><rect width="1440" height="560" x="0" y="0" fill="none"></rect><path d="M-118.17 408.86C-16.53 409.12 82.08 478.86 282.34 478.86 482.59 478.86 478.45 408.02 682.85 408.86 887.25 409.7 967.7 634.45 1083.36 642.81" stroke="rgba(5, 164, 173, 1)" stroke-width="2"></path><path d="M-97.32 387.87C87.23 387.06 348.24 235.41 625.24 236.67 902.24 237.93 859.39 585.09 986.52 618.05" stroke="rgba(5, 164, 173, 1)" stroke-width="2"></path><path d="M-34.52 494.63C143.48 490.75 298 248.08 633.67 248.23 969.34 248.38 1110.57 611.83 1301.86 624.47" stroke="rgba(5, 164, 173, 1)" stroke-width="2"></path><path d="M-52 107.34C96.5 110.39 198.77 296.31 506.88 308.94 815 321.57 905.14 617.95 1065.77 629.01" stroke="rgba(5, 164, 173, 1)" stroke-width="2"></path><path d="M-225.89 231.01C-97 230.11 9.2 102.6 274.76 107.81 540.32 113.02 606.14 549.94 775.41 586.25" stroke="rgba(5, 164, 173, 1)" stroke-width="2"></path></g><defs><mask id="SvgjsMask1018"><rect width="1440" height="560" fill="#ffffff"></rect></mask></defs></svg>