<svg xmlns="http://www.w3.org/2000/svg" version="1.1" xmlns:xlink="http://www.w3.org/1999/xlink" xmlns:svgjs="http://svgjs.com/svgjs" width="540" height="960" preserveAspectRatio="none" viewBox="0 0 540 960"><g mask="url(&quot;#SvgjsMask1109&quot;)" fill="none"><path d="M 279,-310.81166155563653 C 243.4,-214.81 102.2,-22.81 101,169.18833844436347 C 99.8,361.19 265.8,457.19 273,649.1883384443635 C 280.2,841.19 124.2,1067.03 137,1129.1883384443636 C 149.8,1191.35 297,993.84 337,960" stroke="rgba(5, 164, 173, 1)" stroke-width="2"></path><path d="M 394,-545.2944227225361 C 343.4,-449.29 127.4,-257.29 141,-65.29442272253611 C 154.6,126.71 467.4,222.71 462,414.7055772774639 C 456.6,606.71 137.4,785.65 114,894.7055772774639 C 90.6,1003.76 298.8,946.94 345,960" stroke="rgba(5, 164, 173, 1)" stroke-width="2"></path><path d="M 168,-22.38250037991139 C 222.2,73.62 428.6,265.62 439,457.6174996200886 C 449.4,649.62 209.6,745.62 220,937.6174996200887 C 230.4,1129.62 482.6,1413.14 491,1417.6174996200887 C 499.4,1422.09 307.8,1051.52 262,960" stroke="rgba(5, 164, 173, 1)" stroke-width="2"></path><path d="M 157,-238.95052341926686 C 187,-142.95 305,49.05 307,241.04947658073314 C 309,433.05 143.6,529.05 167,721.0494765807332 C 190.4,913.05 426.8,1153.26 424,1201.0494765807332 C 421.2,1248.84 207.2,1008.21 153,960" stroke="rgba(5, 164, 173, 1)" stroke-width="2"></path></g><defs><mask id="SvgjsMask1109"><rect width="540" height="960" fill="#ffffff"></rect></mask></defs></svg>