<svg id="visual" viewBox="0 0 540 960" width="540" height="960" xmlns="http://www.w3.org/2000/svg" xmlns:xlink="http://www.w3.org/1999/xlink" version="1.1"><g fill="none" stroke="#0d8665" stroke-width="5"><circle r="38" cx="22" cy="534"></circle><circle r="6" cx="402" cy="527"></circle><circle r="15" cx="193" cy="873"></circle><circle r="34" cx="326" cy="95"></circle><circle r="26" cx="83" cy="752"></circle><circle r="35" cx="17" cy="805"></circle><circle r="10" cx="167" cy="751"></circle><circle r="16" cx="407" cy="367"></circle><circle r="16" cx="436" cy="667"></circle><circle r="13" cx="451" cy="882"></circle><circle r="36" cx="386" cy="5"></circle><circle r="33" cx="64" cy="197"></circle><circle r="31" cx="154" cy="496"></circle><circle r="21" cx="128" cy="369"></circle><circle r="12" cx="332" cy="456"></circle><circle r="15" cx="466" cy="742"></circle><circle r="32" cx="337" cy="651"></circle><circle r="12" cx="531" cy="246"></circle><circle r="29" cx="184" cy="202"></circle><circle r="29" cx="80" cy="441"></circle><circle r="34" cx="29" cy="48"></circle></g></svg>