<svg id="visual" viewBox="0 0 960 540" width="960" height="540" xmlns="http://www.w3.org/2000/svg" xmlns:xlink="http://www.w3.org/1999/xlink" version="1.1"><g fill="none" stroke="#0d8665" stroke-width="2"><circle r="38" cx="899" cy="306"></circle><circle r="6" cx="319" cy="157"></circle><circle r="29" cx="8" cy="303"></circle><circle r="25" cx="733" cy="62"></circle><circle r="18" cx="249" cy="221"></circle><circle r="30" cx="446" cy="259"></circle><circle r="13" cx="80" cy="374"></circle><circle r="19" cx="103" cy="41"></circle><circle r="6" cx="934" cy="506"></circle><circle r="11" cx="147" cy="121"></circle><circle r="25" cx="616" cy="455"></circle><circle r="18" cx="856" cy="15"></circle><circle r="6" cx="342" cy="504"></circle><circle r="26" cx="481" cy="105"></circle><circle r="7" cx="751" cy="472"></circle><circle r="22" cx="790" cy="210"></circle><circle r="32" cx="301" cy="63"></circle><circle r="21" cx="956" cy="417"></circle><circle r="16" cx="5" cy="465"></circle><circle r="29" cx="310" cy="417"></circle><circle r="18" cx="766" cy="134"></circle></g></svg>