<svg xmlns="http://www.w3.org/2000/svg" version="1.1" xmlns:xlink="http://www.w3.org/1999/xlink" xmlns:svgjs="http://svgjs.com/svgjs" width="1440" height="560" preserveAspectRatio="none" viewBox="0 0 1440 560"><g mask="url(&quot;#SvgjsMask1017&quot;)" fill="none"><rect width="1440" height="560" x="0" y="0" fill="rgba(40, 44, 51, 1)"></rect><path d="M1610.74 108.8C1476.8 110.36 1293.79 260.91 1096.71 260 899.62 259.09 936.04-22.82 839.69-55.48" stroke="rgba(5, 164, 173, 1)" stroke-width="2"></path><path d="M1607.25 326.84C1455.55 327.58 1328.76 461.79 1014.29 455.64 699.81 449.49 619.35-53.4 421.32-93.3" stroke="rgba(5, 164, 173, 1)" stroke-width="2"></path><path d="M1694.42 423.5C1522.47 419.61 1392.75 189.9 1049.97 182.7 707.18 175.5 576.36-41.79 405.51-45.11" stroke="rgba(5, 164, 173, 1)" stroke-width="2"></path><path d="M1456.6 315.46C1343.68 315.25 1233.48 245.46 1010.37 245.46 787.25 245.46 797.28 318.42 564.13 315.46 330.99 312.5 257.02-6.65 117.9-25.39" stroke="rgba(5, 164, 173, 1)" stroke-width="2"></path><path d="M1714.35 170.54C1573.01 174.23 1458.3 379.36 1188.13 377.74 917.96 376.12 832.88-45.24 661.91-74.91" stroke="rgba(5, 164, 173, 1)" stroke-width="2"></path></g><defs><mask id="SvgjsMask1017"><rect width="1440" height="560" fill="#ffffff"></rect></mask></defs></svg>