<svg xmlns="http://www.w3.org/2000/svg" version="1.1" xmlns:xlink="http://www.w3.org/1999/xlink" xmlns:svgjs="http://svgjs.com/svgjs" width="1440" height="500" preserveAspectRatio="none" viewBox="0 0 1440 500"><g mask="url(&quot;#SvgjsMask1047&quot;)" fill="none"><rect width="1440" height="500" x="0" y="0" fill="rgba(40, 44, 51, 1)"></rect><path d="M1251.01-70.17C1051.7-55.26 912.4 336.36 563.18 337.28 213.97 338.2 52.19 173.43-124.64 172.28" stroke="rgba(5, 185, 197, 0.24)" stroke-width="0.5"></path><path d="M1199.77-8.14C1089.33-3.81 1001.17 175.9 797.97 176.25 594.77 176.6 597.06 113.75 396.16 113.75 195.26 113.75 96.02 176.06-5.64 176.25" stroke="rgba(5, 185, 197, 0.24)" stroke-width="0.5"></path><path d="M782.89-1.82C618.25 41.39 569.09 486.21 316.26 493.99 63.43 501.77-30.8 389.64-150.37 388.99" stroke="rgba(5, 185, 197, 0.24)" stroke-width="0.5"></path><path d="M1276.23-40.14C1074.6-21.55 944.85 397.64 596.07 399.59 247.28 401.54 89.02 270.17-84.1 269.59" stroke="rgba(5, 185, 197, 0.24)" stroke-width="0.5"></path><path d="M784.23-63.54C642.66-28.51 585.57 353.93 377.76 354.89 169.95 355.85 89.58 119.12-28.71 109.89" stroke="rgba(5, 185, 197, 0.24)" stroke-width="0.5"></path></g><defs><mask id="SvgjsMask1047"><rect width="1440" height="500" fill="#ffffff"></rect></mask></defs></svg>