<svg version="1.1" id="Layer_1" xmlns="http://www.w3.org/2000/svg" xmlns:xlink="http://www.w3.org/1999/xlink" x="0px" y="0px"
	 width="100%" viewBox="0 0 500 500" enable-background="new 0 0 500 500" xml:space="preserve">
<path fill="currentColor" opacity="0.000000" stroke="none"
	d="
M327.000000,501.000000 
	C219.333359,501.000000 112.166695,500.979004 5.000180,501.095398 
	C1.576344,501.099121 0.903033,500.423889 0.905298,497.000031 
	C1.013776,333.000122 1.013757,169.000153 0.905338,5.000258 
	C0.903075,1.576984 1.575758,0.903020 4.999865,0.905285 
	C168.999756,1.013775 332.999725,1.013760 496.999634,0.905354 
	C500.422638,0.903091 501.096985,1.575409 501.094727,4.999745 
	C500.986206,168.999634 500.986237,332.999603 501.094604,496.999512 
	C501.096893,500.422272 500.426086,501.105438 497.000183,501.097168 
	C440.500366,500.960480 384.000153,501.000000 327.000000,501.000000 
z"/>
<path fill="#0FB9BE" opacity="1.000000" stroke="none" 
	d="
M291.698730,142.286774 
	C299.659454,146.829605 307.128418,151.533478 315.012543,155.388153 
	C325.136505,160.337891 334.936951,165.875122 344.967010,170.982117 
	C350.180695,173.636765 354.858612,177.197983 360.847046,178.602753 
	C364.164551,179.380981 365.135315,183.291809 365.032318,187.002441 
	C364.549347,204.404510 364.264984,221.861008 364.523346,239.214371 
	C364.854706,261.470581 364.401550,283.731201 365.038879,305.976959 
	C365.164093,310.347198 363.505890,312.612640 359.792725,314.819977 
	C347.845032,321.922455 334.878876,327.090088 323.085144,334.428650 
	C308.743042,343.352875 293.228546,350.103668 278.678101,358.649963 
	C270.251221,363.599548 261.448975,367.906525 252.889862,372.636963 
	C250.808609,373.787231 249.177307,373.709686 247.082870,372.629181 
	C238.559235,368.231873 229.552063,364.649689 221.426666,359.628540 
	C205.522522,349.800476 188.533188,342.039368 172.324188,332.814636 
	C163.027161,327.523560 153.872833,321.666412 143.962784,317.868347 
	C136.141190,314.870697 134.816391,309.968536 135.020630,303.065613 
	C135.290497,293.943817 135.812119,284.795471 135.767944,275.708466 
	C135.713272,264.458221 135.019852,253.181580 135.180908,241.915283 
	C135.344009,230.505737 134.315308,219.106201 135.813065,207.664429 
	C136.570679,201.876862 135.470352,195.848755 135.238678,189.928284 
	C135.008820,184.053741 135.811874,179.827087 142.838760,177.170258 
	C152.000168,173.706329 160.200439,167.743484 168.912964,163.038666 
	C180.683121,156.682678 192.537003,150.481216 204.373474,144.248657 
	C218.289093,136.921310 232.406357,129.948898 246.041855,122.134529 
	C250.192215,119.755997 252.874619,121.451416 255.636597,123.074394 
	C267.289276,129.921677 279.542999,135.610916 291.698730,142.286774 
z"/>
<path fill="#000000" opacity="1.000000" stroke="none" 
	d="
M164.604065,291.265015 
	C159.957977,288.820923 161.525040,284.764832 160.850662,281.171082 
	C159.264725,272.719513 160.604050,264.281952 159.947174,255.879898 
	C159.716461,252.928726 160.904160,251.420715 163.387085,250.131989 
	C170.308105,246.539658 177.193008,242.862366 183.936188,238.949783 
	C186.972046,237.188293 189.198822,237.260452 191.523407,239.985626 
	C199.539917,249.383621 210.602921,251.485413 222.082718,252.562912 
	C225.642029,252.896988 228.747940,249.706924 232.462997,251.371674 
	C231.474091,264.350220 232.262405,277.395935 231.969589,290.428589 
	C231.929367,292.218719 232.944870,293.511353 233.488007,295.033142 
	C234.352692,297.455750 235.536453,297.231934 236.903412,295.526642 
	C238.835297,293.116577 242.397308,292.436157 243.518982,289.106110 
	C243.820663,288.210480 244.758774,287.860504 245.997589,288.440521 
	C252.662598,291.560883 259.392700,294.542206 266.099976,297.572327 
	C269.124908,298.938904 267.906128,300.024963 265.850159,300.996796 
	C258.096832,304.661713 250.431503,308.540466 242.522049,311.831665 
	C239.902420,312.921722 237.740784,314.715454 234.558212,315.178162 
	C217.206924,317.700623 202.574554,299.949493 201.272873,285.673370 
	C201.050476,283.234406 201.766495,283.010895 203.796616,282.951172 
	C207.823853,282.832581 211.647537,279.293488 211.729156,275.923218 
	C211.828537,271.818970 208.561676,268.483307 203.973526,268.004303 
	C197.444687,267.322662 188.422943,273.477570 186.021835,280.155457 
	C182.125259,290.992493 185.561554,300.195526 192.224777,308.731995 
	C199.526031,318.085815 209.154907,322.656708 220.951187,323.048035 
	C225.125854,323.186523 227.798981,324.609894 227.129700,329.854828 
	C226.502090,334.773376 227.216919,339.851379 226.822525,344.818085 
	C226.688126,346.510742 226.725586,349.809021 222.549408,347.443298 
	C210.127792,340.406708 197.354233,333.994263 184.774918,327.232391 
	C173.613342,321.232635 162.552216,315.046051 151.392242,309.043213 
	C148.367798,307.416382 145.056183,300.297180 146.286148,297.423126 
	C147.556946,294.453674 159.244568,290.989502 162.243866,292.786926 
	C166.679947,295.445404 171.120987,298.109009 175.405151,300.999847 
	C176.827972,301.959930 178.928040,302.574921 179.319290,301.586975 
	C179.921356,300.066559 178.071106,299.439331 176.539047,298.658386 
	C172.495163,296.597046 168.773315,293.903900 164.604065,291.265015 
z"/>
<path fill="#000000" opacity="1.000000" stroke="none" 
	d="
M289.858093,340.676453 
	C283.526276,344.569641 276.917145,348.316315 270.237946,351.933533 
	C264.535004,355.022003 258.681488,357.837555 253.033218,361.019867 
	C250.202759,362.614563 247.740280,362.307312 245.265076,360.649017 
	C241.208954,357.931488 237.193314,355.187866 232.944763,352.736176 
	C230.617645,351.393311 228.135452,349.134796 228.898087,345.276764 
	C229.436829,342.551331 228.935364,339.631165 229.042160,336.803375 
	C229.078354,335.845306 228.365753,333.953918 230.250916,334.248291 
	C232.844513,334.653229 231.888718,333.340149 231.639252,332.151520 
	C229.894775,323.839417 230.162292,324.143616 238.139908,320.815643 
	C247.007217,317.116547 255.658524,312.803864 264.071564,308.156799 
	C267.663971,306.172485 271.660553,305.458832 275.125824,303.400757 
	C276.539612,302.561066 277.692322,303.185547 278.760895,303.971222 
	C283.914276,307.760345 290.207001,308.884766 296.087433,310.261627 
	C302.578796,311.781525 309.217346,309.465027 314.954590,306.014099 
	C328.760193,297.710236 331.066925,284.892395 329.176270,270.063110 
	C327.701965,258.499573 325.232788,247.518341 317.754547,238.249725 
	C316.126038,236.231354 317.889374,235.379532 318.889404,234.738861 
	C323.006317,232.101334 327.236847,229.630341 331.522491,227.274399 
	C332.642273,226.658829 333.974426,226.868073 335.248566,227.725906 
	C340.553131,231.297394 345.700256,235.146103 351.740631,237.495758 
	C353.328033,238.113251 352.992615,239.652832 352.993164,240.947937 
	C352.999878,257.433044 352.997559,273.918182 352.997559,290.863373 
	C348.139343,290.101593 345.365234,285.250824 339.960266,285.033478 
	C342.485535,288.918884 346.322815,289.959320 349.534760,291.760773 
	C354.041565,294.288452 354.806274,304.559052 350.301880,307.241150 
	C339.104889,313.908417 327.812134,320.419708 316.459808,326.819733 
	C307.947998,331.618378 299.283752,336.146667 290.351257,340.911194 
	C285.006409,337.511169 279.664398,334.491364 274.801971,330.754852 
	C271.732483,328.396057 268.369202,327.376495 264.351074,327.466125 
	C256.617828,327.638489 248.870514,327.572998 241.129517,327.473206 
	C248.835236,327.606262 256.551453,327.678864 264.245209,327.506195 
	C268.643707,327.407501 272.134338,328.712219 275.461334,331.204773 
	C279.968323,334.581299 284.700256,337.617828 289.858093,340.676453 
z"/>
<path fill="#000000" opacity="1.000000" stroke="none" 
	d="
M184.003967,212.114563 
	C184.713547,205.473755 184.056183,199.205719 186.226944,193.010269 
	C189.564331,183.485153 201.119507,173.313385 211.253616,173.101761 
	C228.113831,172.749680 245.018738,172.398666 261.840393,173.278641 
	C269.786957,173.694351 277.725983,173.563538 285.654083,174.011536 
	C288.380188,174.165588 290.287109,173.563492 290.001007,170.241058 
	C289.671844,166.418716 286.844482,168.353790 285.066528,168.164719 
	C284.010193,168.052368 282.871765,168.957916 281.774109,168.948578 
	C274.529602,168.887054 271.429321,170.783585 271.971161,160.099930 
	C272.165009,156.277847 272.042450,152.437241 271.992371,148.606018 
	C271.948883,145.278641 273.266510,144.434067 276.220154,146.036163 
	C285.249481,150.933762 294.318726,155.758026 303.331848,160.685013 
	C312.001801,165.424408 320.542786,170.407043 329.305176,174.966141 
	C332.389740,176.571045 332.489624,179.131409 332.587311,181.722870 
	C332.690704,184.464706 332.061188,187.226303 332.027466,189.982651 
	C331.913208,199.319656 322.068481,205.015839 313.590515,201.021820 
	C307.285889,198.051651 304.355347,192.493423 301.039185,187.074188 
	C300.872223,186.801315 300.755890,186.488541 300.663818,186.180069 
	C298.389954,178.561676 292.568268,176.739304 285.545593,177.015411 
	C279.798401,177.241394 274.039276,176.514923 268.274902,177.610474 
	C266.962555,177.859894 265.901611,178.282059 264.841125,178.840530 
	C256.607544,183.176376 248.390396,187.543900 240.201324,191.963104 
	C238.645081,192.802917 237.151093,193.043152 235.766342,191.934647 
	C229.787003,187.148300 222.204910,186.570740 215.307144,184.299988 
	C212.076157,183.236374 208.721573,185.738937 205.369705,186.393555 
	C205.025711,186.460739 204.545059,187.112305 204.558853,187.476334 
	C204.594116,188.406143 205.303406,188.766739 206.185516,189.000153 
	C212.289856,190.615417 218.236496,192.639771 223.701920,195.893494 
	C225.511368,196.970688 227.290482,198.181427 229.241196,198.907227 
	C230.379623,199.330811 231.710892,199.538971 231.782089,200.781097 
	C231.868423,202.287598 230.205353,202.915604 229.161026,203.336349 
	C224.958344,205.029556 220.560425,206.450897 216.924637,209.128342 
	C209.647079,214.487656 202.964523,220.516663 200.241058,229.611084 
	C198.733154,234.646423 202.697388,239.564865 209.919434,241.657623 
	C209.782684,239.074173 207.408310,237.739395 207.041016,235.175385 
	C205.925644,227.389450 210.715485,222.664749 215.512756,218.406357 
	C219.977921,214.442795 225.179504,210.994568 231.989609,210.388336 
	C231.989609,221.423721 231.971710,232.531815 232.009232,243.639725 
	C232.014740,245.274521 231.481644,245.860001 229.756226,246.057663 
	C221.311050,247.025192 213.538330,247.997070 205.075104,243.199585 
	C196.873474,238.550415 191.112350,232.923843 187.336472,224.721085 
	C185.557617,220.856689 184.885590,216.658768 184.003967,212.114563 
z"/>
<path fill="#000000" opacity="1.000000" stroke="none" 
	d="
M153.520935,244.568207 
	C158.935242,246.994110 158.030487,251.879044 158.010529,256.468750 
	C157.967636,266.335571 157.959518,276.202972 158.025131,286.069550 
	C158.040466,288.374634 158.090302,289.841400 154.908295,290.285583 
	C152.032974,290.686920 149.389755,292.751007 146.001907,294.393158 
	C146.001907,291.901581 146.001923,290.125275 146.001923,288.348969 
	C146.001877,259.547668 146.038254,230.746292 145.961014,201.945206 
	C145.949921,197.805786 146.191559,193.730026 147.031937,189.692291 
	C147.390610,187.968979 148.166794,186.937439 149.967041,185.807327 
	C165.762939,175.891266 182.674408,168.044785 199.019226,159.167191 
	C207.704758,154.449692 216.499435,149.889664 225.748108,144.792648 
	C225.748108,148.712082 226.191864,152.319580 225.593689,155.745163 
	C225.187973,158.068604 224.936478,160.332733 225.078247,162.619049 
	C225.446747,168.561630 225.185791,168.678268 219.059586,168.238785 
	C199.788330,166.856293 184.178268,177.814804 179.561432,197.315552 
	C176.694153,209.426483 179.101151,220.532364 184.777237,231.203125 
	C186.031982,233.561996 186.215530,234.579712 183.273560,236.212341 
	C178.877808,238.651718 174.164078,240.702087 170.123917,243.605209 
	C164.802567,247.428970 160.048325,248.868332 154.434174,243.958908 
	C154.073181,243.915726 153.693146,243.739731 153.620880,243.878571 
	C153.548630,244.017395 153.731384,244.457001 153.520935,244.568207 
z"/>
<path fill="#000000" opacity="1.000000" stroke="none" 
	d="
M252.832733,283.033325 
	C248.413986,282.611511 247.886826,280.225494 247.910583,276.601776 
	C248.080994,250.614685 248.168442,224.623871 247.845078,198.639679 
	C247.788040,194.054733 249.846909,192.428986 253.287827,191.002563 
	C255.538834,190.069397 257.808533,189.112381 259.901520,187.880112 
	C265.822632,184.394012 269.398315,185.355347 273.979401,190.568497 
	C281.229004,198.818375 289.539795,206.068787 299.548584,210.698944 
	C308.807770,214.982330 321.191711,211.370239 331.972076,201.927429 
	C331.972076,209.252762 331.983215,215.947678 331.963776,222.642487 
	C331.959259,224.193451 330.706146,225.030548 329.656860,225.695496 
	C324.148804,229.186142 318.537292,232.518265 312.428741,234.877899 
	C311.501068,235.236237 310.215118,236.430389 309.746063,233.888657 
	C309.417053,232.105789 307.157959,233.029221 305.816711,233.056000 
	C293.352203,233.304855 280.885986,233.566406 268.429443,234.057770 
	C264.435822,234.215317 262.693970,233.206726 262.926941,228.800476 
	C263.289246,221.948334 263.022705,215.062943 263.022705,206.962296 
	C260.409149,209.434189 261.032166,211.317520 261.028595,212.933685 
	C260.982971,233.590897 260.998444,254.248215 260.998383,274.905518 
	C260.998383,275.905060 261.007202,276.904724 260.996429,277.904144 
	C260.916016,285.364471 260.240051,285.814545 252.832733,283.033325 
z"/>
<path fill="#000000" opacity="1.000000" stroke="none" 
	d="
M263.004578,240.215759 
	C262.705261,237.459473 263.878235,236.879120 265.930389,236.986206 
	C277.667175,237.598572 289.437714,236.010117 301.176239,237.871170 
	C310.801819,239.397217 320.770691,248.350769 320.616547,257.863251 
	C320.524292,263.556824 318.176331,269.431549 313.799408,274.129211 
	C305.439331,283.101990 294.433746,287.647949 283.848114,292.954163 
	C280.490540,294.637207 277.195892,293.971008 273.984070,292.480255 
	C272.356079,291.724670 270.840820,290.697845 269.172028,290.063477 
	C262.042419,287.353302 261.121399,286.704376 262.123871,279.504913 
	C263.925201,266.568085 262.430481,253.621460 263.004578,240.215759 
z"/>
<path fill="#000000" opacity="1.000000" stroke="none" 
	d="
M255.285950,135.726074 
	C258.786072,137.510071 261.862061,139.414291 265.201508,140.529602 
	C269.495148,141.963577 270.871948,144.765640 269.940674,148.787277 
	C268.771637,153.835464 268.667633,158.747223 269.905090,163.822449 
	C270.663391,166.932449 269.813690,169.676682 265.630127,168.975128 
	C255.141876,167.216370 244.614853,167.729843 234.147293,168.763184 
	C229.640289,169.208115 228.734848,166.713120 229.134491,163.716919 
	C229.855820,158.308762 228.497513,153.000061 229.023346,147.659134 
	C229.343475,144.407562 230.442474,142.024429 234.124512,140.800797 
	C238.259201,139.426712 242.336273,137.404846 245.889816,134.889740 
	C249.446442,132.372452 252.090668,133.236160 255.285950,135.726074 
z"/>
<path fill="#000000" opacity="1.000000" stroke="none" 
	d="
M352.370392,234.737549 
	C347.475647,232.663300 343.014496,230.387466 338.773560,227.645477 
	C336.109070,225.922791 334.906311,223.801453 334.998871,220.750046 
	C335.193207,214.342682 335.495636,207.900345 335.537445,201.538193 
	C335.576172,195.650894 334.861511,189.701691 335.468109,183.764877 
	C336.047424,178.095367 336.231873,178.025787 341.498840,180.893524 
	C352.502594,186.884842 353.691284,190.915527 352.456543,203.496246 
	C351.817139,210.011185 352.990967,216.899414 352.984680,223.631378 
	C352.981262,227.282745 352.839630,230.933960 352.370392,234.737549 
z"/>
<path fill="#000000" opacity="1.000000" stroke="none" 
	d="
M318.280457,276.225311 
	C320.912994,273.672089 321.300995,270.166107 323.507690,267.381104 
	C325.393280,275.064362 325.088654,282.453613 322.826324,289.430145 
	C320.644196,296.159424 315.137909,300.990479 308.535309,302.534668 
	C301.779907,304.114563 294.432037,304.009094 287.983551,299.992554 
	C286.011017,298.763916 286.126373,298.903931 288.247742,297.482513 
	C295.991760,292.293579 304.943542,289.163086 312.199615,283.078247 
	C314.549133,281.107941 315.825165,278.440521 318.280457,276.225311 
z"/>
<path fill="#0FB8BE" opacity="1.000000" stroke="none" 
	d="
M290.125549,340.913452 
	C284.221008,340.019043 279.884155,336.115967 275.371338,332.733459 
	C272.202759,330.358490 268.893219,328.953064 265.026855,329.026947 
	C254.743530,329.223389 244.440323,328.390137 234.185379,329.521027 
	C233.040024,329.647339 232.716553,329.283356 232.337219,328.629364 
	C231.629028,327.408356 232.666519,326.570923 233.424072,326.281281 
	C234.458130,325.885895 235.711700,326.009613 236.871399,326.006775 
	C244.196259,325.988800 251.642349,326.834534 258.816956,325.796082 
	C268.953247,324.328949 276.020905,329.614014 283.206177,334.917450 
	C285.488342,336.601929 288.415192,337.642303 289.974976,340.673767 
	C290.015137,341.027069 290.085297,340.947815 290.125549,340.913452 
z"/>
<path fill="#0FB9BE" opacity="1.000000" stroke="none" 
	d="
M153.502899,244.490250 
	C152.445831,244.167099 151.581177,243.654770 150.510864,242.907928 
	C150.221466,242.333084 150.137741,241.992798 150.562988,241.783844 
	C152.269241,241.834244 153.092834,242.482269 153.945496,243.619186 
	C153.947235,244.044174 153.821289,244.172623 153.502899,244.490250 
z"/>
<path fill="#0FB9BE" opacity="1.000000" stroke="none" 
	d="
M150.497925,242.484863 
	C149.983734,242.221268 149.049683,242.039368 149.540115,241.264404 
	C149.646683,241.096008 150.390259,241.330750 150.956207,241.647507 
	C150.944855,242.042267 150.817734,242.169312 150.497925,242.484863 
z"/>
<path fill="#10B9BF" opacity="1.000000" stroke="none" 
	d="
M279.729980,278.726501 
	C272.870392,279.056519 270.987030,277.254639 271.024292,270.635071 
	C271.040375,267.783295 270.224487,263.868500 271.727570,262.316620 
	C274.380554,259.577545 277.043732,256.349518 281.044922,255.008163 
	C287.205933,252.942734 291.404358,254.594925 294.868896,260.743652 
	C297.260681,264.988495 295.903778,270.651825 291.344452,273.859192 
	C287.975311,276.229309 284.319733,278.225433 279.729980,278.726501 
z"/>
</svg>