<?xml version="1.0" standalone="no"?>
<!DOCTYPE svg PUBLIC "-//W3C//DTD SVG 20010904//EN"
 "http://www.w3.org/TR/2001/REC-SVG-20010904/DTD/svg10.dtd">
<svg version="1.0" xmlns="http://www.w3.org/2000/svg"
 width="1021.000000pt" height="1141.000000pt" viewBox="0 0 1021.000000 1141.000000"
 preserveAspectRatio="xMidYMid meet">

<g transform="translate(0.000000,1141.000000) scale(0.100000,-0.100000)"
fill="#000000" stroke="none">
<path d="M9 11383 c0 -10 201 -2306 448 -5103 l448 -5085 2095 -598 c1152
-329 2102 -598 2110 -598 8 0 958 269 2110 598 l2095 598 448 5085 c247 2797
448 5093 448 5103 -1 16 -251 17 -5101 17 -4850 0 -5100 -1 -5101 -17z m9212
-900 c0 -10 -168 -1948 -373 -4308 l-373 -4290 -1675 -478 c-921 -263 -1678
-478 -1682 -477 -5 0 -9 323 -10 717 l-3 717 -1185 391 -1185 390 -56 775
c-32 426 -59 799 -61 828 l-3 52 606 0 605 0 29 -373 29 -372 600 -204 c331
-112 607 -206 614 -209 9 -3 12 176 12 877 l0 881 -1262 0 -1263 0 -103 1773
c-56 974 -105 1784 -107 1800 l-4 27 1369 0 1370 0 0 750 0 750 2055 0 c1950
0 2055 -1 2056 -17z"/>
<path d="M3650 7783 c-1 -10 18 -280 42 -600 l42 -583 688 0 688 0 0 600 0
600 -730 0 c-688 0 -730 -1 -730 -17z"/>
</g>
</svg>
